<?xml version="1.0" standalone="no"?>
<!DOCTYPE svg PUBLIC "-//W3C//DTD SVG 20010904//EN"
 "http://www.w3.org/TR/2001/REC-SVG-20010904/DTD/svg10.dtd">
<svg version="1.0" xmlns="http://www.w3.org/2000/svg"
 width="500.000000pt" height="500.000000pt" viewBox="0 0 500.000000 500.000000"
 preserveAspectRatio="xMidYMid meet">

<g transform="translate(0.000000,500.000000) scale(0.100000,-0.100000)"
fill="#000000" stroke="none">
<path d="M2435 3779 c-407 -39 -730 -373 -761 -786 -8 -108 6 -213 45 -333 42
-129 98 -219 205 -325 100 -99 172 -148 286 -193 131 -51 169 -57 388 -57
l204 0 24 28 c34 40 32 90 -5 128 -16 16 -39 29 -50 29 -20 0 -21 6 -21 89 0
92 4 101 48 101 9 0 44 13 77 29 112 53 189 160 203 281 4 36 6 154 4 262 l-2
197 -98 -35 -97 -36 -66 16 c-84 20 -124 20 -204 0 l-64 -16 -100 36 -101 36
0 -174 0 -175 -57 -16 c-78 -23 -132 -56 -188 -116 -59 -63 -86 -124 -94 -213
l-6 -71 -52 77 c-90 135 -128 268 -120 423 14 270 162 486 410 600 99 45 165
58 283 58 122 0 184 -14 289 -63 233 -108 377 -316 401 -580 6 -58 12 -79 30
-97 28 -28 73 -30 105 -4 22 18 24 25 21 104 -11 364 -285 694 -646 777 -96
22 -195 28 -291 19z m166 -900 c72 -25 102 -79 55 -101 -20 -8 -36 -7 -78 7
-63 20 -88 40 -88 71 0 34 47 44 111 23z m360 -10 c20 -20 20 -21 2 -41 -49
-55 -183 -67 -183 -17 0 25 31 51 78 66 55 17 80 15 103 -8z"/>
<path d="M2359 1881 c-63 -20 -109 -80 -109 -143 0 -37 38 -103 70 -122 39
-22 117 -23 160 -1 94 49 92 207 -3 253 -37 18 -86 23 -118 13z m106 -82 c29
-28 27 -95 -4 -120 -54 -44 -141 -9 -141 57 0 48 9 65 44 80 37 16 73 10 101
-17z"/>
<path d="M1870 1740 l0 -140 30 0 30 0 0 87 0 87 62 -87 c52 -74 65 -87 90
-87 l28 0 0 140 0 140 -30 0 c-28 0 -30 -2 -31 -42 -2 -39 -3 -60 -8 -107 0
-8 -28 22 -61 67 -47 65 -65 82 -85 82 l-25 0 0 -140z"/>
<path d="M2690 1740 l0 -140 35 0 35 0 0 140 0 140 -35 0 -35 0 0 -140z"/>
<path d="M2920 1740 l0 -140 30 0 c29 0 30 2 30 46 0 41 2 45 22 42 15 -2 31
-18 46 -45 21 -38 28 -43 58 -43 40 0 41 3 9 54 l-24 39 25 30 c34 41 32 90
-5 128 -28 27 -34 29 -110 29 l-81 0 0 -140z m144 68 c9 -12 16 -26 16 -30 0
-18 -35 -38 -66 -38 -34 0 -34 0 -34 45 0 45 0 45 34 45 25 0 39 -7 50 -22z"/>
</g>
</svg>
